HIERARCHY
ROOT Hips
{
	OFFSET 0.000000 0.000000 0.000000
	CHANNELS 6 Xposition Yposition Zposition Zrotation Yrotation Xrotation 
	JOINT LHipJoint
	{
		OFFSET 0.000000 0.000000 0.000000
		CHANNELS 3 Zrotation Yrotation Xrotation
		JOINT LeftUpLeg
		{
			OFFSET 1.363060 -1.794630 0.839290
			CHANNELS 3 Zrotation Yrotation Xrotation
			JOINT LeftLeg
			{
				OFFSET 2.448110 -6.726130 0.000000
				CHANNELS 3 Zrotation Yrotation Xrotation
				JOINT LeftFoot
				{
					OFFSET 2.562200 -7.039590 0.000000
					CHANNELS 3 Zrotation Yrotation Xrotation
					JOINT LeftToeBase
					{
						OFFSET 0.157640 -0.433110 2.322550
						CHANNELS 3 Zrotation Yrotation Xrotation
						End Site
						{
							OFFSET 0.000000 0.000000 0.000000
						}
					}
				}
			}
		}
	}
	JOINT RHipJoint
	{
		OFFSET 0.000000 0.000000 0.000000
		CHANNELS 3 Zrotation Yrotation Xrotation
		JOINT RightUpLeg
		{
			OFFSET -1.305520 -1.794630 0.839290
			CHANNELS 3 Zrotation Yrotation Xrotation
			JOINT RightLeg
			{
				OFFSET -2.542530 -6.985550 0.000000
				CHANNELS 3 Zrotation Yrotation Xrotation
				JOINT RightFoot
				{
					OFFSET -2.568260 -7.056230 0.000000
					CHANNELS 3 Zrotation Yrotation Xrotation
					JOINT RightToeBase
					{
						OFFSET -0.164730 -0.452590 2.363150
						CHANNELS 3 Zrotation Yrotation Xrotation
						End Site
						{
							OFFSET 0.000000 0.000000 0.000000
						}
					}
				}
			}
		}
	}
	JOINT LowerBack
	{
		OFFSET 0.000000 0.000000 0.000000
		CHANNELS 3 Zrotation Yrotation Xrotation
		JOINT Spine
		{
			OFFSET 0.028270 2.035590 -0.193380
			CHANNELS 3 Zrotation Yrotation Xrotation
			JOINT Spine1
			{
				OFFSET 0.056720 2.048850 -0.042750
				CHANNELS 3 Zrotation Yrotation Xrotation
				JOINT Neck
				{
					OFFSET 0.000000 0.000000 0.000000
					CHANNELS 3 Zrotation Yrotation Xrotation
					JOINT Neck1
					{
						OFFSET -0.054170 1.746240 0.172020
						CHANNELS 3 Zrotation Yrotation Xrotation
						JOINT Head
						{
							OFFSET 0.104070 1.761360 -0.123970
							CHANNELS 3 Zrotation Yrotation Xrotation
							End Site
							{
								OFFSET 0.000000 0.000000 0.000000
							}
						}
					}
				}
				JOINT LeftShoulder
				{
					OFFSET 0.000000 0.000000 0.000000
					CHANNELS 3 Zrotation Yrotation Xrotation
					JOINT LeftArm
					{
						OFFSET 3.362410 1.200890 -0.311210
						CHANNELS 3 Zrotation Yrotation Xrotation
						JOINT LeftForeArm
						{
							OFFSET 4.983000 -0.000000 -0.000000
							CHANNELS 3 Zrotation Yrotation Xrotation
							JOINT LeftHand
							{
								OFFSET 3.483560 -0.000000 -0.000000
								CHANNELS 3 Zrotation Yrotation Xrotation
								JOINT LeftFingerBase
								{
									OFFSET 0.000000 0.000000 0.000000
									CHANNELS 3 Zrotation Yrotation Xrotation
									JOINT LeftHandIndex1
									{
										OFFSET 0.715260 -0.000000 -0.000000
										CHANNELS 3 Zrotation Yrotation Xrotation
										End Site
										{
											OFFSET 0.000000 0.000000 0.000000
										}
									}
								}
								JOINT LThumb
								{
									OFFSET 0.000000 0.000000 0.000000
									CHANNELS 3 Zrotation Yrotation Xrotation
									End Site
									{
										OFFSET 0.000000 0.000000 0.000000
									}
								}
							}
						}
					}
				}
				JOINT RightShoulder
				{
					OFFSET 0.000000 0.000000 0.000000
					CHANNELS 3 Zrotation Yrotation Xrotation
					JOINT RightArm
					{
						OFFSET -3.136600 1.374050 -0.404650
						CHANNELS 3 Zrotation Yrotation Xrotation
						JOINT RightForeArm
						{
							OFFSET -5.241900 -0.000000 -0.000000
							CHANNELS 3 Zrotation Yrotation Xrotation
							JOINT RightHand
							{
								OFFSET -3.444170 -0.000000 -0.000000
								CHANNELS 3 Zrotation Yrotation Xrotation
								JOINT RightFingerBase
								{
									OFFSET 0.000000 0.000000 0.000000
									CHANNELS 3 Zrotation Yrotation Xrotation
									JOINT RightHandIndex1
									{
										OFFSET -0.622530 -0.000000 -0.000000
										CHANNELS 3 Zrotation Yrotation Xrotation
										End Site
										{
											OFFSET 0.000000 0.000000 0.000000
										}
									}
								}
								JOINT RThumb
								{
									OFFSET 0.000000 0.000000 0.000000
									CHANNELS 3 Zrotation Yrotation Xrotation
									End Site
									{
										OFFSET 0.000000 0.000000 0.000000
									}
								}
							}
						}
					}
				}
			}
		}
	}
}
MOTION
Frames: 9
Frame Time: 0.008333
-8.988688 16.659676 -2.315860 73.726913 85.150205 98.643593 -8.058733 -0.367500 0.299376 -13.053950 -6.043547 -47.783196 -2.499695 1.155253 27.867037 0.440972 1.815298 -0.716692 0.514100 0.000000 -30.564301 11.628439 -1.979708 -3.693069 4.368254 -6.142700 -8.332839 0.856216 -2.700611 33.862294 0.601374 9.958311 9.741642 2.757600 0.000001 -81.779700 -4.333677 1.334188 5.892885 -1.939928 1.547814 -1.721654 -6.415477 1.504598 0.871212 9.244506 4.200032 3.382164 -3.993436 -0.374305 2.488981 0.000000 0.000000 0.000000 -8.846631 2.735029 1.946738 -57.465734 -10.035204 8.969194 -3.929074 -11.968697 -0.004379 3.891963 2.131277 0.073830 -0.096816 0.018253 0.000000 0.000000 0.000000 0.000000 0.000000 0.000000 0.000000 15.701028 4.067116 -1.730589 70.347344 21.785430 1.747853 1.256021 48.241308 -0.015401 -5.217913 12.919869 -0.606874 0.032230 -0.264588 0.000000 0.000000 0.000000 0.000000 0.000000 0.000000 0.000000 
-8.805014 16.645724 -2.292199 68.325877 84.501099 93.042048 -7.959655 -0.270020 0.112322 -13.717740 -5.871952 -47.430847 -2.476863 1.263882 29.520734 0.577930 2.456680 -1.989465 0.512000 -0.000000 -30.602800 11.914748 -1.858517 -3.744662 3.367183 -6.474744 -9.374752 0.547627 -2.903818 36.644843 0.444497 9.861475 11.847802 3.147001 -0.000000 -81.947600 -4.904049 1.409238 6.135679 -2.063254 1.642424 -1.683564 -6.435611 1.597347 0.852615 9.100791 4.584100 3.563856 -4.035030 -0.377176 2.521791 0.000000 0.000000 0.000000 -9.097601 2.574556 1.929095 -57.542726 -11.188493 8.633342 -3.939645 -11.133019 -0.004740 4.151250 2.119981 0.077926 -0.093835 0.023754 0.000000 0.000000 0.000000 0.000000 0.000000 0.000000 0.000000 15.787018 4.325944 -1.710971 70.800972 21.251801 0.316010 1.228015 46.297660 -0.017929 -6.338044 12.866255 -0.734092 0.039610 -0.256074 0.000000 0.000000 0.000000 0.000000 0.000000 0.000000 0.000000 
-8.626128 16.639332 -2.270741 63.618167 83.845078 88.139865 -7.867866 -0.179640 -0.085257 -14.346823 -5.629566 -46.907603 -2.470198 1.337221 30.820169 0.725418 3.140335 -3.297444 0.482400 0.000000 -31.053500 12.172739 -1.711290 -3.788616 2.459559 -6.706381 -10.512000 0.245993 -3.088602 39.479249 0.246896 9.488660 14.047754 3.462400 -0.000001 -81.064600 -5.381322 1.484388 6.394367 -2.165619 1.734642 -1.635262 -6.446027 1.688162 0.851380 8.898734 4.975713 3.751074 -4.075102 -0.379794 2.554930 0.000000 0.000000 0.000000 -9.333402 2.452656 1.903328 -57.751420 -12.446421 8.184966 -3.932242 -10.309206 -0.005144 4.513569 2.060348 0.081822 -0.090120 0.029820 0.000000 0.000000 0.000000 0.000000 0.000000 0.000000 0.000000 15.816271 4.585817 -1.690086 71.237694 20.777336 -1.075818 1.195676 44.283434 -0.020322 -7.533299 12.717511 -0.862413 0.047700 -0.247035 0.000000 0.000000 0.000000 0.000000 0.000000 0.000000 0.000000 
-8.451362 16.639969 -2.251779 59.534864 83.199599 83.869431 -7.788702 -0.096344 -0.284352 -14.920439 -5.336180 -46.231172 -2.476179 1.378722 31.772714 0.876397 3.832190 -4.566476 0.424801 0.000000 -31.813200 12.396345 -1.542111 -3.829413 1.666704 -6.865502 -11.726621 -0.035692 -3.254230 42.326412 0.015168 8.796309 16.214660 3.630600 -0.000001 -79.251200 -5.756534 1.553652 6.662059 -2.245623 1.818647 -1.578017 -6.449044 1.771265 0.866905 8.651491 5.359281 3.938219 -4.114379 -0.382166 2.587401 0.000000 0.000000 0.000000 -9.533471 2.362403 1.869969 -58.105528 -13.778676 7.633598 -3.905103 -9.535125 -0.005624 4.981438 1.948043 0.084816 -0.085754 0.036215 0.000000 0.000000 0.000000 0.000000 0.000000 0.000000 0.000000 15.804304 4.832544 -1.665978 71.639519 20.352228 -2.392608 1.164135 42.240549 -0.022384 -8.738618 12.475064 -0.981435 0.056187 -0.237633 0.000000 0.000000 0.000000 0.000000 0.000000 0.000000 0.000000 
-8.279957 16.647021 -2.235735 55.981427 82.589763 80.139595 -7.730750 -0.023029 -0.477546 -15.410452 -5.002773 -45.434660 -2.489682 1.393931 32.411085 1.021500 4.490128 -5.729669 0.344600 0.000000 -32.759300 12.577570 -1.359180 -3.870839 1.020118 -6.974546 -13.003491 -0.288553 -3.402568 45.146484 -0.242508 7.737863 18.218977 3.575900 0.000000 -76.751900 -6.015113 1.611168 6.931268 -2.300772 1.888568 -1.512820 -6.447888 1.840851 0.900503 8.372574 5.717399 4.116180 -4.153645 -0.384262 2.617307 0.000000 0.000000 0.000000 -9.690090 2.314389 1.829376 -58.606811 -15.172346 7.034850 -3.858498 -8.852410 -0.006224 5.544781 1.785322 0.085813 -0.081012 0.042702 0.000000 0.000000 0.000000 0.000000 0.000000 0.000000 0.000000 15.767019 5.050880 -1.638845 71.988986 19.967868 -3.594736 1.139831 40.210175 -0.023931 -9.881026 12.150437 -1.081055 0.064769 -0.228025 0.000000 0.000000 0.000000 0.000000 0.000000 0.000000 0.000000 
-8.111118 16.659767 -2.222151 52.899172 82.022053 76.893140 -7.693785 0.043547 -0.657480 -15.816405 -4.649415 -44.545170 -2.507509 1.388114 32.769713 1.152544 5.085953 -6.726005 0.253700 0.000000 -33.771200 12.720151 -1.166461 -3.916880 0.514706 -7.068187 -14.333843 -0.510331 -3.537619 47.910855 -0.517660 6.295127 19.939498 3.246000 -0.000000 -73.872300 -6.169038 1.652538 7.195173 -2.334077 1.940625 -1.442961 -6.444900 1.892986 0.944973 8.083132 6.041230 4.284969 -4.193805 -0.386175 2.645162 0.000000 0.000000 0.000000 -9.779826 2.279517 1.783625 -59.255485 -16.562517 6.410619 -3.794295 -8.325514 -0.006954 6.180654 1.575999 0.083708 -0.076238 0.048990 0.000000 0.000000 0.000000 0.000000 0.000000 0.000000 0.000000 15.728444 5.234022 -1.606370 72.273687 19.596500 -4.659678 1.127900 38.241578 -0.024828 -10.878812 11.756438 -1.151874 0.072967 -0.218373 0.000000 0.000000 0.000000 0.000000 0.000000 0.000000 0.000000 
-7.944046 16.677557 -2.210909 50.208081 81.516690 74.056671 -7.683665 0.101349 -0.820199 -16.122431 -4.279930 -43.607394 -2.525096 1.368493 32.906963 1.260577 5.584803 -7.514699 0.165100 -0.000000 -34.754400 12.821005 -0.972510 -3.968496 0.171141 -7.157298 -15.708370 -0.702718 -3.662877 50.584806 -0.803597 4.458600 21.274705 2.613400 0.000000 -70.910101 -6.214845 1.674220 7.446421 -2.345154 1.971335 -1.370221 -6.442831 1.924177 0.999715 7.799139 6.315117 4.437050 -4.235452 -0.387891 2.669471 0.000000 0.000000 0.000000 -9.802804 2.264118 1.733108 -60.035755 -17.930773 5.852452 -3.717060 -8.004268 -0.007819 6.855400 1.332700 0.077505 -0.071987 0.054903 0.000000 0.000000 0.000000 0.000000 0.000000 0.000000 0.000000 15.706467 5.368489 -1.569628 72.481580 19.226644 -5.551682 1.133793 36.369282 -0.024975 -11.664484 11.316338 -1.189188 0.080473 -0.208777 0.000000 0.000000 0.000000 0.000000 0.000000 0.000000 0.000000 
-7.778165 16.699794 -2.201267 47.866459 81.078931 71.592121 -7.699491 0.152654 -0.963157 -16.333895 -3.901280 -42.656691 -2.540016 1.341429 32.877452 1.339768 5.967671 -8.069643 0.091900 -0.000000 -35.650600 12.884785 -0.781470 -4.025907 -0.015953 -7.256632 -17.122141 -0.870654 -3.781593 53.141484 -1.094692 2.264813 22.146440 1.698000 0.000000 -68.065201 -6.167144 1.673813 7.679320 -2.337130 1.978679 -1.297402 -6.443154 1.932307 1.059684 7.538784 6.527029 4.570333 -4.279209 -0.389473 2.690150 0.000000 0.000000 0.000000 -9.751535 2.249009 1.678796 -60.928565 -19.230013 5.425819 -3.632580 -7.948404 -0.008789 7.528974 1.072410 0.067402 -0.068803 0.060330 0.000000 0.000000 0.000000 0.000000 0.000000 0.000000 0.000000 15.721589 5.443294 -1.527913 72.605308 18.844312 -6.242287 1.160797 34.621794 -0.024328 -12.181684 10.851573 -1.191099 0.086937 -0.199278 0.000000 0.000000 0.000000 0.000000 0.000000 0.000000 0.000000 
-7.612999 16.725952 -2.192334 45.845426 80.711418 69.474599 -7.739038 0.199725 -1.086056 -16.461295 -3.516166 -41.725944 -2.550888 1.312651 32.735192 1.387135 6.224553 -8.384769 0.043400 -0.000000 -36.439600 12.916637 -0.596528 -4.087926 -0.056040 -7.372977 -18.570311 -1.019535 -3.895943 55.554231 -1.385947 -0.210467 22.502297 0.563900 -0.000000 -65.422199 -6.042578 1.649984 7.889909 -2.313281 1.961581 -1.227377 -6.446679 1.916189 1.118878 7.318367 6.679514 4.685999 -4.324480 -0.390938 2.707913 0.000000 0.000000 0.000000 -9.626682 2.221653 1.622338 -61.905402 -20.427751 5.199003 -3.548011 -8.200375 -0.009816 8.157346 0.813278 0.054004 -0.067218 0.065315 0.000000 0.000000 0.000000 0.000000 0.000000 0.000000 0.000000 15.786993 5.462528 -1.481242 72.643281 18.424958 -6.731322 1.209549 33.032443 -0.022901 -12.381156 10.377629 -1.157705 0.091903 -0.189867 0.000000 0.000000 0.000000 0.000000 0.000000 0.000000 0.000000 
